<svg xmlns="http://www.w3.org/2000/svg" xmlns:xlink="http://www.w3.org/1999/xlink" width="400" zoomAndPan="magnify" viewBox="0 0 300 299.999988" height="400" preserveAspectRatio="xMidYMid meet" version="1.0"><defs><clipPath id="id1"><path d="M 2.882812 2.882812 L 296.882812 2.882812 L 296.882812 296.882812 L 2.882812 296.882812 Z M 2.882812 2.882812 " clip-rule="nonzero"/></clipPath></defs><g clip-path="url(#id1)"><path fill="#ef9230" d="M 149.882812 2.882812 C 68.691406 2.882812 2.882812 68.691406 2.882812 149.882812 C 2.882812 231.078125 68.691406 296.882812 149.882812 296.882812 C 231.078125 296.882812 296.882812 231.078125 296.882812 149.882812 C 296.882812 68.691406 231.078125 2.882812 149.882812 2.882812 Z M 149.882812 187.910156 C 128.882812 187.910156 111.859375 170.886719 111.859375 149.882812 C 111.859375 128.882812 128.882812 111.859375 149.882812 111.859375 C 170.886719 111.859375 187.910156 128.882812 187.910156 149.882812 C 187.910156 170.886719 170.886719 187.910156 149.882812 187.910156 Z M 149.882812 187.910156 " fill-opacity="1" fill-rule="nonzero"/></g><path fill="#d36c27" d="M 44.730469 66.402344 C 44.730469 66.402344 26.246094 73.269531 14.628906 127.667969 C 14.628906 127.667969 15.15625 144.566406 11.984375 160.941406 C 8.816406 177.3125 10.929688 204.25 19.378906 216.394531 C 27.832031 228.542969 38.921875 234.878906 51.597656 243.332031 C 64.273438 251.78125 72.195312 254.421875 77.476562 261.289062 C 82.757812 268.152344 93.320312 275.546875 93.320312 268.683594 C 93.320312 261.816406 79.589844 244.914062 70.082031 236.992188 C 60.574219 229.070312 39.449219 207.945312 41.035156 191.574219 C 42.617188 175.199219 42.089844 129.78125 42.617188 121.859375 C 43.148438 113.9375 49.484375 69.042969 44.730469 66.402344 Z M 44.730469 66.402344 " fill-opacity="1" fill-rule="nonzero"/><path fill="#d36c27" d="M 218.683594 264.175781 C 218.683594 264.175781 238.402344 263.628906 266.902344 215.851562 C 266.902344 215.851562 271.851562 199.671875 280.105469 185.199219 C 288.382812 170.710938 292.835938 133.953125 288.734375 119.726562 C 284.648438 105.503906 281.640625 106.453125 272.359375 94.375 C 263.082031 82.300781 253.191406 77.300781 250.40625 69.097656 C 247.609375 60.890625 240.003906 50.488281 237.785156 57 C 235.566406 63.496094 243.136719 83.917969 249.582031 94.480469 C 256.023438 105.046875 269.226562 131.855469 262.46875 146.839844 C 255.6875 161.839844 241.570312 205.003906 238.523438 212.347656 C 235.496094 219.6875 215.039062 260.144531 218.683594 264.175781 Z M 218.683594 264.175781 " fill-opacity="1" fill-rule="nonzero"/><path fill="#f16b97" d="M 273.824219 109.621094 C 269.4375 96.121094 269.15625 80.417969 260.988281 69.167969 C 252.730469 57.8125 237.820312 52.742188 226.464844 44.484375 C 215.234375 36.316406 205.832031 23.640625 192.328125 19.257812 C 179.300781 15.03125 164.320312 19.609375 149.882812 19.609375 C 135.449219 19.609375 120.46875 15.03125 107.441406 19.257812 C 93.9375 23.640625 84.535156 36.296875 73.304688 44.484375 C 61.949219 52.742188 47.039062 57.828125 38.78125 69.167969 C 30.613281 80.398438 30.332031 96.121094 25.945312 109.621094 C 21.722656 122.648438 12.566406 135.464844 12.566406 149.882812 C 12.566406 164.320312 21.722656 177.136719 25.945312 190.148438 C 30.332031 203.648438 30.613281 219.351562 38.78125 230.601562 C 47.039062 241.957031 61.949219 247.027344 73.304688 255.285156 C 84.535156 263.453125 93.9375 276.128906 107.441406 280.511719 C 120.46875 284.738281 135.449219 280.160156 149.882812 280.160156 C 164.320312 280.160156 179.300781 284.738281 192.328125 280.511719 C 205.832031 276.128906 215.234375 263.472656 226.464844 255.285156 C 237.820312 247.027344 252.730469 241.941406 260.988281 230.601562 C 269.15625 219.371094 269.4375 203.648438 273.824219 190.148438 C 278.046875 177.121094 287.203125 164.304688 287.203125 149.882812 C 287.203125 135.449219 278.046875 122.632812 273.824219 109.621094 Z M 149.882812 193.542969 C 125.765625 193.542969 106.226562 174.003906 106.226562 149.882812 C 106.226562 125.765625 125.765625 106.226562 149.882812 106.226562 C 174.003906 106.226562 193.542969 125.765625 193.542969 149.882812 C 193.542969 174.003906 174.003906 193.542969 149.882812 193.542969 Z M 149.882812 193.542969 " fill-opacity="1" fill-rule="nonzero"/><path fill="#f27f9d" d="M 111.683594 51.472656 C 111.683594 51.472656 96.191406 47.25 84.21875 68.375 C 72.246094 89.5 65.207031 88.796875 68.726562 102.878906 C 72.246094 116.964844 58.867188 137.386719 72.953125 135.273438 C 87.035156 133.160156 85.628906 126.117188 90.554688 118.371094 C 95.484375 110.625 99.007812 100.0625 113.792969 95.132812 C 128.582031 90.203125 138.441406 85.980469 141.257812 78.234375 C 144.074219 70.488281 140.554688 50.066406 111.683594 51.472656 Z M 111.683594 51.472656 " fill-opacity="1" fill-rule="nonzero"/><path fill="#f7afc1" d="M 97.703125 75.488281 C 108.160156 65.910156 120.042969 59.835938 125.414062 68.375 C 131.152344 77.492188 121.1875 73.65625 106.402344 81.050781 C 91.613281 88.445312 86.683594 102.527344 83.972656 101.894531 C 80.910156 101.191406 89.675781 82.84375 97.703125 75.488281 Z M 97.703125 75.488281 " fill-opacity="1" fill-rule="nonzero"/><path fill="#f27f9d" d="M 67.316406 171.1875 C 67.316406 171.1875 44.785156 171.1875 49.007812 185.972656 C 53.234375 200.761719 56.050781 203.578125 63.796875 219.777344 C 71.542969 235.972656 68.023438 249.351562 86.332031 251.464844 C 104.640625 253.578125 149.003906 259.914062 119.429688 243.015625 C 89.851562 226.113281 96.894531 241.605469 87.738281 221.886719 C 78.585938 202.171875 84.21875 210.621094 78.585938 192.3125 C 72.953125 174.003906 72.953125 174.003906 67.316406 171.1875 Z M 67.316406 171.1875 " fill-opacity="1" fill-rule="nonzero"/><path fill="#f7b0bf" d="M 163.441406 101.472656 C 163.441406 101.472656 176.117188 95.132812 183.863281 106.402344 C 191.609375 117.667969 196.539062 151.46875 204.988281 160.625 C 213.4375 169.777344 187.347656 194.214844 176.257812 194.214844 C 168.230469 194.214844 174.585938 186.203125 176.785156 184.179688 C 179.285156 181.871094 192.347656 168.722656 193.367188 157.453125 C 194.917969 140.570312 190.640625 124.339844 174.195312 113.722656 C 170.886719 111.59375 155.976562 105.800781 163.441406 101.472656 Z M 163.441406 101.472656 " fill-opacity="1" fill-rule="nonzero"/><path fill="#ee3d82" d="M 125.238281 104.113281 C 125.238281 104.113281 121.71875 113.972656 106.226562 122.421875 C 90.734375 130.871094 91.4375 142.84375 96.367188 149.179688 C 101.296875 155.519531 103.40625 180.164062 111.859375 185.796875 C 120.308594 191.433594 120.078125 186.292969 112.332031 173.617188 C 104.585938 160.941406 101.769531 135.0625 115.378906 121.71875 C 127.246094 110.082031 134.390625 106.929688 125.238281 104.113281 Z M 125.238281 104.113281 " fill-opacity="1" fill-rule="nonzero"/><path fill="#f7b2c3" d="M 67.316406 193.71875 C 67.316406 193.71875 65.207031 197.945312 69.429688 212.03125 C 73.65625 226.113281 75.0625 236.675781 82.105469 240.902344 C 89.148438 245.125 100.414062 247.941406 101.824219 246.535156 C 103.230469 245.125 94.078125 246.535156 89.148438 238.789062 C 84.21875 231.042969 73.65625 189.496094 67.316406 193.71875 Z M 67.316406 193.71875 " fill-opacity="1" fill-rule="nonzero"/><path fill="#f7b1c2" d="M 103.882812 274.507812 C 98.074219 269.753906 93.847656 260.25 89.625 256.550781 C 85.398438 252.855469 61.105469 242.292969 58.992188 237.539062 C 56.878906 232.785156 54.238281 229.617188 51.070312 224.863281 C 47.898438 220.109375 44.730469 219.582031 39.449219 207.433594 C 34.167969 195.289062 36.28125 191.0625 34.167969 185.78125 C 32.054688 180.5 31 173.632812 29.414062 168.351562 C 27.832031 163.070312 32.582031 146.171875 31 140.359375 C 29.414062 134.550781 34.167969 127.15625 34.167969 122.933594 C 34.167969 118.707031 33.113281 108.144531 34.695312 102.335938 C 36.28125 96.523438 40.507812 81.738281 43.148438 75.925781 C 45.789062 70.117188 55.820312 62.195312 71.667969 52.6875 C 87.511719 43.183594 94.90625 32.617188 96.488281 31.5625 C 97.476562 30.910156 97.632812 27.019531 97.632812 24.152344 C 88.9375 29.941406 81.628906 38.445312 73.304688 44.503906 C 61.949219 52.757812 47.039062 57.847656 38.78125 69.183594 C 30.613281 80.417969 30.332031 96.136719 25.945312 109.640625 C 21.722656 122.667969 12.566406 135.484375 12.566406 149.902344 C 12.566406 164.339844 21.722656 177.15625 25.945312 190.164062 C 30.332031 203.667969 30.613281 219.371094 38.78125 230.621094 C 47.039062 241.976562 61.949219 247.046875 73.304688 255.300781 C 84.535156 263.472656 93.9375 276.144531 107.441406 280.53125 C 108.511719 280.882812 109.585938 281.164062 110.679688 281.390625 C 108.796875 279.085938 106.332031 276.515625 103.882812 274.507812 Z M 103.882812 274.507812 " fill-opacity="1" fill-rule="nonzero"/><path fill="#f27f9d" d="M 218.71875 107.105469 C 218.71875 107.105469 217.3125 93.019531 201.113281 85.273438 C 184.917969 77.527344 175.058594 66.261719 179.988281 62.035156 C 184.917969 57.8125 203.226562 50.769531 218.015625 65.558594 C 232.804688 80.34375 265.898438 114.148438 258.859375 138.089844 C 251.816406 162.03125 245.480469 185.972656 241.253906 202.171875 C 237.027344 218.367188 227.875 229.632812 216.605469 227.523438 C 205.339844 225.410156 191.257812 234.5625 184.917969 235.972656 C 178.582031 237.378906 168.015625 235.972656 190.550781 214.847656 C 213.085938 193.71875 226.464844 186.679688 227.875 160.625 C 229.28125 134.570312 218.015625 128.933594 218.71875 107.105469 Z M 218.71875 107.105469 " fill-opacity="1" fill-rule="nonzero"/><path fill="#f7afc2" d="M 221.464844 91.277344 C 221.464844 91.277344 229.652344 101.839844 230.972656 118.742188 C 232.292969 135.640625 231.238281 141.714844 234.40625 146.734375 C 237.574219 151.75 251.042969 137.226562 244.96875 124.550781 C 238.894531 111.875 223.84375 81.507812 221.464844 91.277344 Z M 221.464844 91.277344 " fill-opacity="1" fill-rule="nonzero"/><path fill="#f7afc2" d="M 204.566406 215.65625 C 199.617188 213.457031 216.710938 207.996094 220.144531 199.285156 C 223.578125 190.570312 224.898438 203.246094 224.898438 203.246094 C 224.898438 203.246094 227.804688 215.390625 223.050781 217.503906 C 218.296875 219.617188 206.941406 216.710938 204.566406 215.65625 Z M 204.566406 215.65625 " fill-opacity="1" fill-rule="nonzero"/><path fill="#ee3d82" d="M 273.824219 109.621094 C 273.433594 108.441406 273.082031 107.226562 272.75 106.011719 C 272.835938 109.65625 273.101562 113.039062 273.644531 115.554688 C 275.757812 125.414062 284.914062 152.878906 268.011719 174.003906 C 251.113281 195.128906 246.183594 200.058594 242.660156 216.957031 C 239.140625 233.859375 238.4375 224 214.496094 243.71875 C 190.550781 263.433594 195.480469 265.546875 181.398438 274 C 167.3125 282.449219 131.363281 275.757812 107.441406 280.511719 C 120.46875 284.738281 135.449219 280.160156 149.882812 280.160156 C 164.320312 280.160156 179.300781 284.738281 192.328125 280.511719 C 205.832031 276.128906 215.234375 263.472656 226.464844 255.285156 C 237.820312 247.027344 252.730469 241.941406 260.988281 230.601562 C 269.15625 219.371094 269.4375 203.648438 273.824219 190.148438 C 278.046875 177.121094 287.203125 164.304688 287.203125 149.882812 C 287.203125 135.449219 278.046875 122.632812 273.824219 109.621094 Z M 273.824219 109.621094 " fill-opacity="1" fill-rule="nonzero"/><path fill="#ee3d82" d="M 150.414062 26.828125 C 158.160156 28.941406 175.761719 33.164062 194.777344 36.6875 C 213.789062 40.207031 251.113281 59.21875 258.152344 70.488281 C 260.792969 74.710938 263.648438 77.457031 266.164062 79.238281 C 264.863281 75.644531 263.222656 72.230469 260.988281 69.167969 C 252.730469 57.8125 240.953125 46.140625 229.597656 37.882812 C 218.367188 29.714844 205.832031 23.640625 192.328125 19.257812 C 179.300781 15.03125 164.320312 19.609375 149.882812 19.609375 C 146.453125 19.609375 142.984375 19.34375 139.53125 19.011719 C 142.121094 21.96875 146.046875 25.628906 150.414062 26.828125 Z M 150.414062 26.828125 " fill-opacity="1" fill-rule="nonzero"/><path fill="#ec008c" d="M 256.851562 135.113281 C 256.148438 135.113281 255.476562 134.761719 255.074219 134.128906 C 254.441406 133.140625 254.738281 131.839844 255.722656 131.207031 L 264.914062 125.34375 C 265.898438 124.710938 267.203125 125.007812 267.835938 125.996094 C 268.46875 126.980469 268.171875 128.285156 267.183594 128.917969 L 257.996094 134.78125 C 257.625 135.007812 257.238281 135.113281 256.851562 135.113281 Z M 256.851562 135.113281 " fill-opacity="1" fill-rule="nonzero"/><path fill="#aadff1" d="M 178.371094 261.832031 C 177.929688 261.832031 177.472656 261.691406 177.085938 261.410156 L 168.421875 254.828125 C 167.488281 254.121094 167.3125 252.800781 168.015625 251.871094 C 168.722656 250.9375 170.042969 250.761719 170.976562 251.464844 L 179.636719 258.046875 C 180.570312 258.753906 180.746094 260.074219 180.042969 261.007812 C 179.636719 261.550781 179.003906 261.832031 178.371094 261.832031 Z M 178.371094 261.832031 " fill-opacity="1" fill-rule="nonzero"/><path fill="#00a651" d="M 83.515625 254.367188 C 82.808594 254.367188 82.140625 254.015625 81.738281 253.402344 L 75.714844 243.964844 C 75.082031 242.980469 75.382812 241.675781 76.367188 241.042969 C 77.351562 240.410156 78.65625 240.707031 79.289062 241.695312 L 85.308594 251.128906 C 85.945312 252.117188 85.644531 253.417969 84.660156 254.050781 C 84.289062 254.261719 83.902344 254.367188 83.515625 254.367188 Z M 83.515625 254.367188 " fill-opacity="1" fill-rule="nonzero"/><path fill="#fff200" d="M 202.75 241.921875 C 202.714844 241.921875 202.664062 241.921875 202.628906 241.921875 C 201.464844 241.851562 200.570312 240.847656 200.640625 239.6875 L 201.394531 227.027344 C 201.464844 225.867188 202.46875 224.988281 203.632812 225.039062 C 204.792969 225.109375 205.691406 226.113281 205.621094 227.273438 L 204.863281 239.933594 C 204.777344 241.058594 203.859375 241.921875 202.75 241.921875 Z M 202.75 241.921875 " fill-opacity="1" fill-rule="nonzero"/><path fill="#ffffff" d="M 69.554688 75.382812 C 69.148438 75.382812 68.746094 75.257812 68.375 75.027344 L 58.214844 68.234375 C 57.25 67.582031 56.984375 66.28125 57.636719 65.3125 C 58.285156 64.34375 59.589844 64.078125 60.558594 64.730469 L 70.714844 71.527344 C 71.683594 72.175781 71.949219 73.480469 71.296875 74.449219 C 70.910156 75.046875 70.242188 75.382812 69.554688 75.382812 Z M 69.554688 75.382812 " fill-opacity="1" fill-rule="nonzero"/><path fill="#00aeef" d="M 64.800781 156.1875 C 64.21875 156.1875 63.640625 155.941406 63.214844 155.464844 L 54.644531 145.730469 C 53.867188 144.851562 53.957031 143.511719 54.835938 142.753906 C 55.714844 141.980469 57.054688 142.066406 57.8125 142.949219 L 66.386719 152.703125 C 67.160156 153.582031 67.070312 154.917969 66.191406 155.675781 C 65.785156 156.011719 65.292969 156.1875 64.800781 156.1875 Z M 64.800781 156.1875 " fill-opacity="1" fill-rule="nonzero"/><path fill="#fff200" d="M 38.394531 175.199219 C 37.742188 175.199219 37.109375 174.902344 36.703125 174.355469 L 29.414062 164.566406 C 28.710938 163.632812 28.90625 162.3125 29.855469 161.609375 C 30.789062 160.90625 32.109375 161.097656 32.8125 162.050781 L 40.101562 171.835938 C 40.804688 172.769531 40.613281 174.089844 39.660156 174.796875 C 39.273438 175.078125 38.832031 175.199219 38.394531 175.199219 Z M 38.394531 175.199219 " fill-opacity="1" fill-rule="nonzero"/><path fill="#aadff1" d="M 49.21875 225.445312 C 49.132812 225.445312 49.0625 225.445312 48.972656 225.425781 C 47.8125 225.285156 46.984375 224.246094 47.125 223.085938 L 48.445312 211.925781 C 48.585938 210.761719 49.644531 209.933594 50.789062 210.074219 C 51.949219 210.214844 52.777344 211.253906 52.636719 212.417969 L 51.316406 223.578125 C 51.191406 224.652344 50.277344 225.445312 49.21875 225.445312 Z M 49.21875 225.445312 " fill-opacity="1" fill-rule="nonzero"/><path fill="#00aeef" d="M 84.34375 216.941406 C 83.972656 216.941406 83.585938 216.835938 83.25 216.640625 C 82.246094 216.042969 81.929688 214.742188 82.546875 213.738281 L 88.515625 203.894531 C 89.113281 202.894531 90.414062 202.574219 91.417969 203.191406 C 92.421875 203.789062 92.738281 205.09375 92.125 206.097656 L 86.15625 215.9375 C 85.75 216.570312 85.0625 216.941406 84.34375 216.941406 Z M 84.34375 216.941406 " fill-opacity="1" fill-rule="nonzero"/><path fill="#ffffff" d="M 72.195312 188.402344 L 58.726562 188.367188 C 57.566406 188.367188 56.613281 187.417969 56.613281 186.257812 C 56.613281 185.09375 57.566406 184.144531 58.726562 184.144531 L 72.195312 184.179688 C 73.355469 184.179688 74.308594 185.128906 74.308594 186.292969 C 74.308594 187.472656 73.355469 188.402344 72.195312 188.402344 Z M 72.195312 188.402344 " fill-opacity="1" fill-rule="nonzero"/><path fill="#ec008c" d="M 103.355469 182.59375 C 103.039062 182.59375 102.722656 182.523438 102.40625 182.367188 L 92 177.171875 C 90.960938 176.644531 90.539062 175.375 91.050781 174.335938 C 91.578125 173.300781 92.84375 172.875 93.882812 173.386719 L 104.289062 178.582031 C 105.328125 179.109375 105.75 180.375 105.238281 181.414062 C 104.871094 182.171875 104.128906 182.59375 103.355469 182.59375 Z M 103.355469 182.59375 " fill-opacity="1" fill-rule="nonzero"/><path fill="#ec008c" d="M 204.6875 150.113281 C 204.230469 150.113281 203.773438 149.972656 203.386719 149.671875 C 202.46875 148.953125 202.292969 147.632812 203.015625 146.714844 L 211.027344 136.417969 C 211.746094 135.5 213.066406 135.324219 213.984375 136.046875 C 214.898438 136.769531 215.074219 138.089844 214.351562 139.003906 L 206.34375 149.304688 C 205.9375 149.832031 205.304688 150.113281 204.6875 150.113281 Z M 204.6875 150.113281 " fill-opacity="1" fill-rule="nonzero"/><path fill="#39b54a" d="M 227.488281 175.199219 C 227.132812 175.199219 226.765625 175.113281 226.429688 174.917969 L 215.128906 168.441406 C 214.125 167.859375 213.773438 166.574219 214.351562 165.554688 C 214.933594 164.550781 216.21875 164.199219 217.242188 164.777344 L 228.542969 171.257812 C 229.546875 171.835938 229.898438 173.121094 229.316406 174.144531 C 228.929688 174.832031 228.207031 175.199219 227.488281 175.199219 Z M 227.488281 175.199219 " fill-opacity="1" fill-rule="nonzero"/><path fill="#00aeef" d="M 258.558594 174.441406 C 258.1875 174.441406 257.820312 174.355469 257.484375 174.144531 C 256.480469 173.546875 256.148438 172.261719 256.726562 171.257812 L 261.570312 163.054688 C 262.167969 162.050781 263.453125 161.714844 264.457031 162.296875 C 265.460938 162.894531 265.792969 164.179688 265.214844 165.183594 L 260.371094 173.386719 C 260.003906 174.074219 259.296875 174.441406 258.558594 174.441406 Z M 258.558594 174.441406 " fill-opacity="1" fill-rule="nonzero"/><path fill="#aadff1" d="M 200.550781 200.550781 C 200.445312 200.550781 200.339844 200.550781 200.234375 200.535156 C 199.074219 200.359375 198.28125 199.285156 198.472656 198.121094 L 200.410156 185.5 C 200.585938 184.335938 201.660156 183.5625 202.820312 183.738281 C 203.984375 183.914062 204.777344 184.988281 204.582031 186.152344 L 202.644531 198.773438 C 202.46875 199.8125 201.574219 200.550781 200.550781 200.550781 Z M 200.550781 200.550781 " fill-opacity="1" fill-rule="nonzero"/><path fill="#ffffff" d="M 254.386719 207.503906 C 253.683594 207.503906 253.011719 207.152344 252.609375 206.535156 L 245.796875 195.886719 C 245.160156 194.898438 245.445312 193.597656 246.429688 192.964844 C 247.414062 192.328125 248.71875 192.613281 249.351562 193.597656 L 256.164062 204.25 C 256.796875 205.234375 256.515625 206.535156 255.53125 207.171875 C 255.160156 207.398438 254.773438 207.503906 254.386719 207.503906 Z M 254.386719 207.503906 " fill-opacity="1" fill-rule="nonzero"/><path fill="#ec008c" d="M 235.972656 226.359375 C 235.550781 226.359375 235.109375 226.238281 234.738281 225.953125 L 226.765625 220.234375 C 225.8125 219.546875 225.601562 218.226562 226.289062 217.292969 C 226.976562 216.34375 228.296875 216.132812 229.230469 216.816406 L 237.203125 222.539062 C 238.15625 223.226562 238.367188 224.546875 237.679688 225.480469 C 237.292969 226.042969 236.640625 226.359375 235.972656 226.359375 Z M 235.972656 226.359375 " fill-opacity="1" fill-rule="nonzero"/><path fill="#fff200" d="M 124.726562 215.851562 C 123.707031 215.851562 122.808594 215.109375 122.648438 214.070312 C 122.472656 212.925781 123.25 211.835938 124.410156 211.660156 L 137.367188 209.582031 C 138.511719 209.390625 139.601562 210.179688 139.78125 211.34375 C 139.957031 212.488281 139.179688 213.578125 138.019531 213.753906 L 125.0625 215.832031 C 124.957031 215.832031 124.832031 215.851562 124.726562 215.851562 Z M 124.726562 215.851562 " fill-opacity="1" fill-rule="nonzero"/><path fill="#ffffff" d="M 112.949219 247.238281 C 112.261719 247.238281 111.59375 246.90625 111.171875 246.289062 L 101.910156 232.152344 C 101.277344 231.183594 101.542969 229.863281 102.527344 229.230469 C 103.496094 228.59375 104.816406 228.859375 105.449219 229.84375 L 114.710938 243.980469 C 115.34375 244.949219 115.078125 246.269531 114.09375 246.90625 C 113.742188 247.117188 113.335938 247.238281 112.949219 247.238281 Z M 112.949219 247.238281 " fill-opacity="1" fill-rule="nonzero"/><path fill="#00aeef" d="M 146.433594 249.386719 C 145.710938 249.386719 145.007812 249.015625 144.601562 248.347656 L 137.964844 237.027344 C 137.386719 236.023438 137.71875 234.722656 138.722656 234.140625 C 139.726562 233.542969 141.03125 233.894531 141.609375 234.898438 L 148.246094 246.21875 C 148.828125 247.222656 148.492188 248.523438 147.492188 249.105469 C 147.171875 249.300781 146.804688 249.386719 146.433594 249.386719 Z M 146.433594 249.386719 " fill-opacity="1" fill-rule="nonzero"/><path fill="#ec008c" d="M 119.5 270.160156 C 118.441406 270.160156 117.527344 269.367188 117.402344 268.292969 C 117.261719 267.132812 118.089844 266.09375 119.253906 265.953125 L 131.628906 264.492188 C 132.789062 264.351562 133.828125 265.179688 133.96875 266.339844 C 134.109375 267.503906 133.285156 268.539062 132.121094 268.683594 L 119.746094 270.144531 C 119.675781 270.144531 119.585938 270.160156 119.5 270.160156 Z M 119.5 270.160156 " fill-opacity="1" fill-rule="nonzero"/><path fill="#ffffff" d="M 167.929688 228.71875 C 166.769531 228.71875 165.816406 227.769531 165.816406 226.605469 L 165.816406 209.707031 C 165.816406 208.542969 166.769531 207.59375 167.929688 207.59375 C 169.089844 207.59375 170.042969 208.542969 170.042969 209.707031 L 170.042969 226.605469 C 170.042969 227.769531 169.089844 228.71875 167.929688 228.71875 Z M 167.929688 228.71875 " fill-opacity="1" fill-rule="nonzero"/><path fill="#aadff1" d="M 121.839844 42.636719 C 121.453125 42.636719 121.046875 42.53125 120.695312 42.300781 L 111.242188 36.191406 C 110.257812 35.558594 109.972656 34.257812 110.609375 33.269531 C 111.242188 32.285156 112.542969 32.003906 113.53125 32.636719 L 122.984375 38.746094 C 123.96875 39.378906 124.253906 40.683594 123.617188 41.667969 C 123.214844 42.285156 122.542969 42.636719 121.839844 42.636719 Z M 121.839844 42.636719 " fill-opacity="1" fill-rule="nonzero"/><path fill="#00aeef" d="M 216.992188 57.019531 C 216.570312 57.019531 216.132812 56.894531 215.761719 56.613281 L 208.296875 51.191406 C 207.347656 50.503906 207.136719 49.183594 207.820312 48.234375 C 208.507812 47.285156 209.828125 47.074219 210.78125 47.757812 L 218.242188 53.179688 C 219.195312 53.867188 219.40625 55.1875 218.71875 56.140625 C 218.296875 56.71875 217.644531 57.019531 216.992188 57.019531 Z M 216.992188 57.019531 " fill-opacity="1" fill-rule="nonzero"/><path fill="#00a651" d="M 93.320312 61.648438 C 93.304688 61.648438 93.269531 61.648438 93.25 61.648438 C 92.089844 61.613281 91.171875 60.628906 91.207031 59.464844 L 91.542969 48.992188 C 91.578125 47.828125 92.546875 46.914062 93.726562 46.949219 C 94.886719 46.984375 95.800781 47.96875 95.765625 49.132812 L 95.433594 59.605469 C 95.398438 60.734375 94.464844 61.648438 93.320312 61.648438 Z M 93.320312 61.648438 " fill-opacity="1" fill-rule="nonzero"/><path fill="#39b54a" d="M 251.746094 97.722656 C 251.128906 97.722656 250.511719 97.457031 250.109375 96.929688 L 241.554688 86.332031 C 240.8125 85.414062 240.953125 84.09375 241.871094 83.355469 C 242.785156 82.617188 244.105469 82.757812 244.84375 83.671875 L 253.402344 94.269531 C 254.140625 95.1875 254 96.507812 253.082031 97.246094 C 252.679688 97.5625 252.222656 97.722656 251.746094 97.722656 Z M 251.746094 97.722656 " fill-opacity="1" fill-rule="nonzero"/><path fill="#fff200" d="M 207.152344 91.804688 C 206.785156 91.804688 206.429688 91.71875 206.097656 91.523438 C 205.09375 90.945312 204.742188 89.640625 205.339844 88.636719 L 212.46875 76.4375 C 213.050781 75.433594 214.351562 75.082031 215.355469 75.679688 C 216.359375 76.261719 216.710938 77.5625 216.113281 78.566406 L 208.984375 90.769531 C 208.597656 91.417969 207.875 91.804688 207.152344 91.804688 Z M 207.152344 91.804688 " fill-opacity="1" fill-rule="nonzero"/><path fill="#00aeef" d="M 239.265625 114.21875 C 239.246094 114.21875 239.230469 114.21875 239.210938 114.21875 L 227.433594 113.9375 C 226.273438 113.902344 225.339844 112.933594 225.375 111.769531 C 225.410156 110.609375 226.378906 109.675781 227.539062 109.710938 L 239.316406 109.992188 C 240.480469 110.027344 241.410156 110.996094 241.375 112.15625 C 241.339844 113.300781 240.410156 114.21875 239.265625 114.21875 Z M 239.265625 114.21875 " fill-opacity="1" fill-rule="nonzero"/><path fill="#aadff1" d="M 194.214844 114.464844 C 193.367188 114.464844 192.578125 113.953125 192.242188 113.125 L 187.789062 101.769531 C 187.363281 100.679688 187.894531 99.464844 188.984375 99.023438 C 190.078125 98.601562 191.292969 99.128906 191.730469 100.222656 L 196.183594 111.578125 C 196.609375 112.667969 196.078125 113.882812 194.988281 114.324219 C 194.722656 114.410156 194.460938 114.464844 194.214844 114.464844 Z M 194.214844 114.464844 " fill-opacity="1" fill-rule="nonzero"/><path fill="#39b54a" d="M 99.234375 144.425781 C 98.867188 144.425781 98.480469 144.320312 98.144531 144.109375 L 88.003906 137.914062 C 87 137.296875 86.699219 136.011719 87.300781 135.007812 C 87.914062 134.003906 89.199219 133.707031 90.203125 134.304688 L 100.34375 140.5 C 101.347656 141.117188 101.648438 142.402344 101.050781 143.40625 C 100.644531 144.074219 99.941406 144.425781 99.234375 144.425781 Z M 99.234375 144.425781 " fill-opacity="1" fill-rule="nonzero"/><path fill="#00a651" d="M 31 136.117188 C 30.578125 136.117188 30.15625 135.996094 29.785156 135.730469 C 28.835938 135.0625 28.605469 133.742188 29.273438 132.789062 L 35.59375 123.777344 C 36.261719 122.824219 37.582031 122.597656 38.535156 123.265625 C 39.484375 123.933594 39.714844 125.253906 39.042969 126.207031 L 32.726562 135.21875 C 32.320312 135.800781 31.652344 136.117188 31 136.117188 Z M 31 136.117188 " fill-opacity="1" fill-rule="nonzero"/><path fill="#aadff1" d="M 105.890625 110.449219 C 105.082031 110.449219 104.289062 109.972656 103.953125 109.164062 L 99.324219 98.390625 C 98.867188 97.316406 99.359375 96.085938 100.433594 95.609375 C 101.507812 95.152344 102.738281 95.644531 103.214844 96.71875 L 107.84375 107.492188 C 108.300781 108.566406 107.808594 109.796875 106.734375 110.273438 C 106.453125 110.398438 106.15625 110.449219 105.890625 110.449219 Z M 105.890625 110.449219 " fill-opacity="1" fill-rule="nonzero"/><path fill="#ec008c" d="M 51.070312 98.089844 C 50.347656 98.089844 49.644531 97.722656 49.253906 97.050781 L 42.847656 86.3125 C 42.25 85.308594 42.582031 84.007812 43.585938 83.425781 C 44.589844 82.828125 45.894531 83.164062 46.472656 84.164062 L 52.863281 94.921875 C 53.464844 95.925781 53.128906 97.230469 52.125 97.808594 C 51.808594 97.984375 51.4375 98.089844 51.070312 98.089844 Z M 51.070312 98.089844 " fill-opacity="1" fill-rule="nonzero"/><path fill="#fff200" d="M 72.019531 117.648438 C 71.667969 117.648438 71.3125 117.5625 70.980469 117.367188 C 69.957031 116.789062 69.605469 115.503906 70.1875 114.480469 L 76.171875 103.902344 C 76.753906 102.878906 78.039062 102.527344 79.0625 103.109375 C 80.082031 103.691406 80.433594 104.976562 79.851562 105.996094 L 73.867188 116.578125 C 73.480469 117.261719 72.757812 117.648438 72.019531 117.648438 Z M 72.019531 117.648438 " fill-opacity="1" fill-rule="nonzero"/><path fill="#ffffff" d="M 154.972656 92.457031 C 153.933594 92.457031 153.019531 91.683594 152.878906 90.625 C 152.71875 89.464844 153.546875 88.410156 154.691406 88.25 L 168.054688 86.488281 C 169.214844 86.332031 170.269531 87.160156 170.429688 88.304688 C 170.585938 89.464844 169.761719 90.519531 168.617188 90.679688 L 155.253906 92.441406 C 155.148438 92.441406 155.058594 92.457031 154.972656 92.457031 Z M 154.972656 92.457031 " fill-opacity="1" fill-rule="nonzero"/><path fill="#ec008c" d="M 189.988281 65.875 C 189.285156 65.875 188.578125 65.523438 188.175781 64.851562 L 181.132812 53.289062 C 180.535156 52.285156 180.832031 51 181.835938 50.382812 C 182.839844 49.785156 184.125 50.082031 184.742188 51.085938 L 191.785156 62.652344 C 192.382812 63.65625 192.082031 64.941406 191.078125 65.558594 C 190.746094 65.769531 190.359375 65.875 189.988281 65.875 Z M 189.988281 65.875 " fill-opacity="1" fill-rule="nonzero"/><path fill="#00a651" d="M 157.453125 67.019531 C 156.679688 67.019531 155.921875 66.578125 155.554688 65.839844 L 150.042969 54.644531 C 149.53125 53.605469 149.953125 52.335938 151.011719 51.808594 C 152.050781 51.296875 153.316406 51.71875 153.84375 52.777344 L 159.355469 63.972656 C 159.867188 65.011719 159.445312 66.28125 158.386719 66.808594 C 158.089844 66.949219 157.773438 67.019531 157.453125 67.019531 Z M 157.453125 67.019531 " fill-opacity="1" fill-rule="nonzero"/><path fill="#fff200" d="M 159.65625 33.921875 C 158.652344 33.921875 157.773438 33.199219 157.578125 32.195312 C 157.367188 31.050781 158.125 29.941406 159.285156 29.730469 L 173.175781 27.195312 C 174.320312 26.984375 175.429688 27.742188 175.640625 28.90625 C 175.851562 30.046875 175.09375 31.15625 173.933594 31.371094 L 160.042969 33.902344 C 159.917969 33.902344 159.796875 33.921875 159.65625 33.921875 Z M 159.65625 33.921875 " fill-opacity="1" fill-rule="nonzero"/><path fill="#ec008c" d="M 128.828125 87.582031 C 128.285156 87.582031 127.753906 87.371094 127.332031 86.964844 L 118.777344 78.460938 C 117.949219 77.632812 117.949219 76.296875 118.757812 75.46875 C 119.585938 74.640625 120.925781 74.640625 121.753906 75.453125 L 130.308594 83.953125 C 131.136719 84.78125 131.136719 86.121094 130.324219 86.949219 C 129.902344 87.371094 129.375 87.582031 128.828125 87.582031 Z M 128.828125 87.582031 " fill-opacity="1" fill-rule="nonzero"/><path fill="#f8ad53" d="M 50.011719 47.917969 C 50.011719 47.917969 70.082031 30.488281 79.589844 26.792969 C 89.09375 23.09375 79.0625 37.355469 67.441406 42.636719 C 55.820312 47.917969 42.089844 55.839844 42.089844 57.425781 C 42.089844 59.007812 41.035156 55.839844 50.011719 47.917969 Z M 50.011719 47.917969 " fill-opacity="1" fill-rule="nonzero"/><path fill="#f8ad53" d="M 228.015625 32.601562 C 228.015625 32.601562 235.410156 45.804688 243.859375 47.917969 C 252.308594 50.03125 234.878906 33.128906 228.015625 32.601562 Z M 228.015625 32.601562 " fill-opacity="1" fill-rule="nonzero"/><path fill="#f8ad53" d="M 127.121094 287.710938 C 134.515625 287.710938 153 282.429688 159.867188 286.128906 C 166.730469 289.824219 155.113281 296.164062 137.15625 293.523438 C 119.199219 290.882812 114.972656 287.710938 127.121094 287.710938 Z M 127.121094 287.710938 " fill-opacity="1" fill-rule="nonzero"/><path fill="#f8ad53" d="M 271.324219 221.167969 C 271.324219 221.167969 274.492188 208.492188 280.300781 198.457031 C 286.109375 188.421875 286.636719 195.289062 283.46875 200.570312 C 280.300781 205.851562 272.90625 226.976562 269.738281 229.617188 C 266.570312 232.257812 270.792969 224.335938 271.324219 221.167969 Z M 271.324219 221.167969 " fill-opacity="1" fill-rule="nonzero"/><path fill="#f8ad53" d="M 136.101562 9.34375 C 136.101562 9.34375 151.417969 6.703125 157.753906 8.816406 C 164.089844 10.929688 155.640625 15.683594 139.269531 15.683594 C 122.894531 15.683594 118.671875 9.34375 136.101562 9.34375 Z M 136.101562 9.34375 " fill-opacity="1" fill-rule="nonzero"/></svg>